<mxfile host="app.diagrams.net" agent="Mozilla/5.0 (Windows NT 10.0; Win64; x64) AppleWebKit/537.36 (KHTML, like Gecko) Chrome/116.0.0.0 Safari/537.36" version="26.1.0">
  <diagram name="第 1 页" id="EZRHivlU8XHtSoryxJLz">
    <mxGraphModel dx="1259" dy="673" grid="1" gridSize="10" guides="1" tooltips="1" connect="1" arrows="1" fold="1" page="1" pageScale="1" pageWidth="827" pageHeight="1169" math="0" shadow="0">
      <root>
        <mxCell id="0" />
        <mxCell id="1" parent="0" />
        <mxCell id="DGAGe3rqw4YAZApAKZPy-3" value="" style="edgeStyle=orthogonalEdgeStyle;rounded=0;orthogonalLoop=1;jettySize=auto;html=1;" edge="1" parent="1" source="DGAGe3rqw4YAZApAKZPy-1" target="DGAGe3rqw4YAZApAKZPy-2">
          <mxGeometry relative="1" as="geometry" />
        </mxCell>
        <mxCell id="DGAGe3rqw4YAZApAKZPy-1" value="开始" style="rounded=1;whiteSpace=wrap;html=1;" vertex="1" parent="1">
          <mxGeometry x="354" y="210" width="120" height="60" as="geometry" />
        </mxCell>
        <mxCell id="DGAGe3rqw4YAZApAKZPy-5" value="" style="edgeStyle=orthogonalEdgeStyle;rounded=0;orthogonalLoop=1;jettySize=auto;html=1;" edge="1" parent="1" source="DGAGe3rqw4YAZApAKZPy-2" target="DGAGe3rqw4YAZApAKZPy-4">
          <mxGeometry relative="1" as="geometry" />
        </mxCell>
        <mxCell id="DGAGe3rqw4YAZApAKZPy-2" value="从媒体引擎获取列表" style="whiteSpace=wrap;html=1;rounded=1;" vertex="1" parent="1">
          <mxGeometry x="341" y="320" width="146" height="60" as="geometry" />
        </mxCell>
        <mxCell id="DGAGe3rqw4YAZApAKZPy-7" value="" style="edgeStyle=orthogonalEdgeStyle;rounded=0;orthogonalLoop=1;jettySize=auto;html=1;" edge="1" parent="1" source="DGAGe3rqw4YAZApAKZPy-4" target="DGAGe3rqw4YAZApAKZPy-6">
          <mxGeometry relative="1" as="geometry" />
        </mxCell>
        <mxCell id="DGAGe3rqw4YAZApAKZPy-4" value="过滤联想词" style="whiteSpace=wrap;html=1;rounded=1;" vertex="1" parent="1">
          <mxGeometry x="354" y="430" width="120" height="60" as="geometry" />
        </mxCell>
        <mxCell id="DGAGe3rqw4YAZApAKZPy-9" style="edgeStyle=orthogonalEdgeStyle;rounded=0;orthogonalLoop=1;jettySize=auto;html=1;" edge="1" parent="1" source="DGAGe3rqw4YAZApAKZPy-6">
          <mxGeometry relative="1" as="geometry">
            <mxPoint x="280" y="690" as="targetPoint" />
          </mxGeometry>
        </mxCell>
        <mxCell id="DGAGe3rqw4YAZApAKZPy-14" style="edgeStyle=orthogonalEdgeStyle;rounded=0;orthogonalLoop=1;jettySize=auto;html=1;entryX=0.5;entryY=0;entryDx=0;entryDy=0;" edge="1" parent="1" source="DGAGe3rqw4YAZApAKZPy-6" target="DGAGe3rqw4YAZApAKZPy-12">
          <mxGeometry relative="1" as="geometry" />
        </mxCell>
        <mxCell id="DGAGe3rqw4YAZApAKZPy-6" value="实验：推荐理由开？" style="whiteSpace=wrap;html=1;rounded=1;" vertex="1" parent="1">
          <mxGeometry x="354" y="570" width="120" height="60" as="geometry" />
        </mxCell>
        <mxCell id="DGAGe3rqw4YAZApAKZPy-13" value="" style="edgeStyle=orthogonalEdgeStyle;rounded=0;orthogonalLoop=1;jettySize=auto;html=1;" edge="1" parent="1" source="DGAGe3rqw4YAZApAKZPy-8" target="DGAGe3rqw4YAZApAKZPy-12">
          <mxGeometry relative="1" as="geometry" />
        </mxCell>
        <mxCell id="DGAGe3rqw4YAZApAKZPy-8" value="需要推荐理由的资源打标" style="whiteSpace=wrap;html=1;rounded=1;" vertex="1" parent="1">
          <mxGeometry x="190" y="800" width="186" height="60" as="geometry" />
        </mxCell>
        <mxCell id="DGAGe3rqw4YAZApAKZPy-11" style="edgeStyle=orthogonalEdgeStyle;rounded=0;orthogonalLoop=1;jettySize=auto;html=1;entryX=0.5;entryY=0;entryDx=0;entryDy=0;" edge="1" parent="1" source="DGAGe3rqw4YAZApAKZPy-10" target="DGAGe3rqw4YAZApAKZPy-8">
          <mxGeometry relative="1" as="geometry" />
        </mxCell>
        <mxCell id="DGAGe3rqw4YAZApAKZPy-10" value="实验：前n位接入推荐理由，属于前n位？" style="whiteSpace=wrap;html=1;rounded=1;" vertex="1" parent="1">
          <mxGeometry x="223" y="690" width="120" height="60" as="geometry" />
        </mxCell>
        <mxCell id="DGAGe3rqw4YAZApAKZPy-12" value="" style="whiteSpace=wrap;html=1;rounded=1;" vertex="1" parent="1">
          <mxGeometry x="354" y="940" width="120" height="60" as="geometry" />
        </mxCell>
      </root>
    </mxGraphModel>
  </diagram>
</mxfile>
